<svg xmlns="http://www.w3.org/2000/svg" viewBox="0 0 1920 468.3" fill="#fff"><path d="M0 364.604V0h69.361v130.128c11.662-19.028 39.898-35.601 78.568-35.601 76.113 0 120.307 59.54 120.307 137.494 0 79.795-48.491 139.335-122.762 139.335-36.215 0-63.223-15.959-77.34-38.67v31.918H0h0zM133.197 157.75c-35.601 0-65.064 26.394-65.064 74.271s29.463 74.885 65.064 74.885c36.215 0 64.45-27.008 64.45-74.885s-28.235-74.271-64.45-74.271h0zm231.407 54.628l63.836-9.821c14.731-1.841 19.642-9.821 19.642-19.028 0-19.028-14.118-34.373-44.194-34.373-30.691 0-47.877 19.642-49.719 42.967l-62.609-13.504c4.297-41.125 41.739-86.547 111.714-86.547 82.251 0 112.941 47.263 112.941 100.051v129.514c0 14.118 1.841 32.532 3.069 41.739h-64.45c-1.841-6.752-2.455-21.483-2.455-31.918-13.504 20.87-38.056 39.284-76.726 39.284-55.243 0-89.616-38.056-89.616-79.182.614-46.65 34.987-73.043 78.568-79.182h0zm83.478 44.808v-11.662l-58.926 9.207c-17.801 2.455-32.532 12.89-32.532 33.146 0 15.345 11.049 30.691 33.76 30.691 30.077 0 57.698-14.731 57.698-61.381zm169.412 108.031h-70.588V95.754h68.133v37.442c15.959-27.621 47.263-39.898 74.885-39.898 64.45 0 93.913 46.65 93.913 104.962v167.57h-70.588V210.537c0-29.463-14.118-52.788-47.877-52.788-30.691 0-48.491 24.552-48.491 55.243l.614 152.225h0zm354.782-193.35c-7.98-1.841-14.731-2.455-20.87-2.455-36.215 0-66.905 17.801-66.905 74.885v121.535h-70.588V96.368h68.133v41.739c15.959-34.987 51.56-41.739 74.271-41.739 5.524 0 11.049.614 16.573 1.228v74.271h-.614zm259.028 114.169c-13.504 44.808-54.629 82.251-118.465 82.251-71.202 0-134.425-51.56-134.425-139.335 0-82.864 61.381-136.88 128.286-136.88 80.409 0 128.286 51.56 128.286 135.038 0 9.821-1.228 20.87-1.228 21.483h-185.985c1.841 34.373 30.691 59.54 65.678 59.54 32.532 0 50.946-16.573 59.54-39.898l58.312 17.801zm-65.678-85.32c-1.228-25.78-17.801-51.56-58.312-51.56-36.215 0-56.471 27.621-58.312 51.56h116.624zm152.839 157.136c4.91 28.849 27.621 49.105 60.767 49.105 44.194 0 69.361-22.097 69.361-72.43v-19.028c-10.435 17.187-34.987 33.146-72.43 33.146-69.361 0-120.921-53.402-120.921-126.445 0-68.747 49.719-127.059 120.921-127.059 41.125 0 65.064 17.801 74.271 35.601V95.141h67.519v236.931c0 71.202-38.67 136.266-136.266 136.266-71.202 0-119.079-44.194-126.445-93.913l63.223-16.573zM1449.82 222.2c0-39.898-27.621-65.678-61.381-65.678-34.987 0-62.609 25.166-62.609 65.678s25.78 66.292 62.609 66.292c36.215 0 61.381-25.78 61.381-66.292zm101.28 143.631V95.754h70.588v270.691l-70.588-.614h0zM1920 230.179c0 79.795-58.926 138.107-136.266 138.107-77.954 0-136.266-58.312-136.266-138.107 0-80.409 58.926-138.107 136.266-138.107S1920 149.77 1920 230.179zm-70.588 0c0-49.105-31.918-74.271-66.292-74.271s-66.292 25.166-66.292 74.271c0 48.491 31.918 74.271 66.292 74.271 34.987 0 66.292-25.166 66.292-74.271z"/></svg>