<svg xmlns="http://www.w3.org/2000/svg" viewBox="0 0 400.2 85.4" fill="#fff"><path d="M21.4 0v21.9c4.1-5 10.3-7.8 16.7-7.7 6.3 0 11.3 1.8 14.8 5.5 3.6 3.6 5.4 8.6 5.4 15v35H31.6v-32c.1-1.7-.4-3.5-1.4-4.9-1-1.2-2.4-1.9-4-1.8-1.8.1-3.6.9-4.9 2.2v36.7H0V0h21.4zm121 14.7l6.6 14.7 6.4-14.7h27.5l-29.8 70.6h-30.8l11.4-26.8-19.4-43.8h28.1zm28.9 43.5c-.1-2.1.3-4.3 1.1-6.3.8-1.9 1.9-3.7 3.4-5.2 1.4-1.5 3.1-2.6 5-3.4s3.9-1.2 6-1.2c4.1-.1 8.1 1.6 10.9 4.7 2.9 3.3 4.4 7.5 4.3 11.9 0 6.1-2.4 11.7-7.1 16.9-4.6 5.1-10.9 8.4-17.7 9.5l-.8-.6c1-.6 2-1.3 2.8-2.2.8-.8 1.6-1.8 2.2-2.8s1.1-2.1 1.5-3.3c.4-1.1.6-2.3.7-3.5-8.2-2.3-12.3-7.2-12.3-14.5m-51.5-14.1A33.5 33.5 0 0 0 116 28a25.44 25.44 0 0 0-10.6-10.7c-4.7-2.5-10-3.8-15.3-3.7-5.2-.1-10.4 1.2-15.1 3.6-4.3 2.3-7.8 5.7-10.2 10-2.5 4.4-3.7 9.4-3.6 14.5 0 2.7.3 5.5 1 8.2.6 2.5 1.6 4.9 3 7.1 1.3 2.2 2.9 4.1 4.8 5.8 1.9 1.8 4.1 3.2 6.4 4.4a36.03 36.03 0 0 0 7.8 2.7c3 .6 6 .9 9 .9 5.2.1 10.4-.9 15.2-2.9 4.6-2.1 8.5-5.3 11.5-9.3v-9.7c-.9 1-1.9 1.8-3 2.5-1.1.8-2.4 1.4-3.6 1.9-1.3.5-2.7.9-4.1 1.2-1.5.3-3 .4-4.4.4a18.16 18.16 0 0 1-4.6-.6 13.84 13.84 0 0 1-3.9-1.8c-1.2-.8-2.2-1.7-3.1-2.8s-1.6-2.4-2.1-3.7h29l-.3-1.9zm-48.4-7.9v-.5c-.1-1.8.5-3.6 1.6-5.1.9-1.3 2.4-2 4-2 1.7-.1 3.3.7 4.3 2.1a8.65 8.65 0 0 1 1.7 5.6l-11.6-.1zm18.4 0v-.4c-.1-1.3.5-2.7 1.4-3.6.9-1 2.2-1.5 3.5-1.5 1.4-.1 2.8.5 3.8 1.5 1 1.1 1.5 2.5 1.5 4H89.8zm157.882 19.819c0 9.4-5 15.8-13.1 15.8-6.1 0-8.9-3.6-9.8-5.4v4.8h-4.7v-43.8h4.8v17.8c1.5-3.3 5.1-5.4 9.5-5.4 7.6-.1 13.3 6.2 13.3 16.2zm-4.7.3c0-6.8-3-12.5-9.3-12.5-5.9 0-8.9 4.5-8.9 11.8 0 7.8 3.3 12.2 9.1 12.2 6.1 0 9.1-4.7 9.1-11.5zm40.2-6.6v21.5h-4.6v-5.7c-2.1 4-6.3 6.5-10.8 6.4-5.6 0-10.1-3-10.1-8.8 0-5.6 3.9-8 12.2-9.2 5.9-.9 8.7-1.5 8.7-4.8 0-3.1-2.9-5.4-7-5.4-5 0-7.5 2.7-7.8 7.3h-4.7c.2-6 3.9-11.2 12.6-11.2 6.5 0 11.5 3.3 11.5 9.9zm-4.6 7.8v-2.6c-2.5 1.2-5.1 2-7.8 2.3-5.3 1-8.4 2.3-8.4 5.8s3 4.9 6.4 4.9c5.2.1 9.8-3.7 9.8-10.4h0zm43.4-6v19.7h-4.9v-18c0-6.5-1.7-9.5-5.9-9.5-5.4 0-10.7 6.7-10.7 17.9v9.6h-4.8v-30.8h4.8v9.7c1.8-5.7 5.3-10.3 11.9-10.3 6-.1 9.6 3.7 9.6 11.7zm25.5-7.7c-6.2 0-9.9 5.5-9.9 12 0 7 4.1 12 10.4 12 5.1 0 7.6-3 8.4-6.9h4.7c-1 6.5-5.6 10.9-13.1 10.9-9.7 0-15.1-7.2-15.1-16s5.6-16 14.6-16c7.3 0 12.6 4.6 13.3 11.4h-4.7c-.5-4.4-4.2-7.6-8.6-7.4zm23.4 12c0-9.4 5.7-16 14.6-16s14.6 6.7 14.6 16-5.7 16-14.6 16-14.6-6.6-14.6-16zm24.5 0c0-6.8-3.5-12.1-9.9-12.1s-9.9 5.2-9.9 12.1c0 6.8 3.5 12 9.9 12s9.9-5.2 9.9-12h0z"/></svg>